<?xml version="1.0" encoding="UTF-8"?>
<svg width="48px" height="48px" viewBox="0 0 48 48" version="1.1" xmlns="http://www.w3.org/2000/svg" xmlns:xlink="http://www.w3.org/1999/xlink">
    <title>01</title>
    <g id="01" stroke="none" stroke-width="1" fill="none" fill-rule="evenodd">
        <rect id="Rectangle" fill="#000000" transform="translate(24.000000, 24.000000) rotate(45.000000) translate(-24.000000, -24.000000) " x="15" y="15" width="18" height="18"></rect>
        <polygon id="Triangle" fill="#0C0F1E" transform="translate(24.000000, 39.000000) scale(1, -1) rotate(-180.000000) translate(-24.000000, -39.000000) " points="24 37 28 41 20 41"></polygon>
        <polygon id="Triangle-Copy-2" fill="#0C0F1E" transform="translate(24.000000, 9.000000) rotate(-180.000000) translate(-24.000000, -9.000000) " points="24 7 28 11 20 11"></polygon>
        <g id="Group" opacity="0.5" transform="translate(24.000000, 24.000000) rotate(90.000000) translate(-24.000000, -24.000000) translate(20.000000, 7.000000)" fill="#0C0F1E">
            <polygon id="Triangle" transform="translate(4.000000, 32.000000) scale(1, -1) rotate(-180.000000) translate(-4.000000, -32.000000) " points="4 30 8 34 0 34"></polygon>
            <polygon id="Triangle-Copy-2" transform="translate(4.000000, 2.000000) rotate(-180.000000) translate(-4.000000, -2.000000) " points="4 -1.34020704e-15 8 4 0 4"></polygon>
        </g>
        <g id="Group" opacity="0.5" transform="translate(24.000000, 24.000000) rotate(45.000000) translate(-24.000000, -24.000000) translate(20.000000, 7.000000)" fill="#0C0F1E">
            <polygon id="Triangle" transform="translate(4.000000, 32.000000) scale(1, -1) rotate(-180.000000) translate(-4.000000, -32.000000) " points="4 30 8 34 0 34"></polygon>
            <polygon id="Triangle-Copy-2" transform="translate(4.000000, 2.000000) rotate(-180.000000) translate(-4.000000, -2.000000) " points="4 -1.34020704e-15 8 4 0 4"></polygon>
        </g>
        <g id="Group" opacity="0.5" transform="translate(24.000000, 24.000000) scale(-1, 1) rotate(45.000000) translate(-24.000000, -24.000000) translate(20.000000, 7.000000)" fill="#0C0F1E">
            <polygon id="Triangle" transform="translate(4.000000, 32.000000) scale(1, -1) rotate(-180.000000) translate(-4.000000, -32.000000) " points="4 30 8 34 0 34"></polygon>
            <polygon id="Triangle-Copy-2" transform="translate(4.000000, 2.000000) rotate(-180.000000) translate(-4.000000, -2.000000) " points="4 -1.34020704e-15 8 4 0 4"></polygon>
        </g>
        <circle id="Oval" fill="#FDF974" transform="translate(24.000000, 24.000000) rotate(90.000000) translate(-24.000000, -24.000000) " cx="24" cy="24" r="8"></circle>
        <circle id="Oval-Copy-2" fill="#0C0F1D" opacity="0.281947545" transform="translate(24.000000, 24.000000) rotate(90.000000) translate(-24.000000, -24.000000) " cx="24" cy="24" r="6"></circle>
        <circle id="Oval-Copy-2" fill="#FDF974" transform="translate(24.000000, 24.000000) rotate(90.000000) translate(-24.000000, -24.000000) " cx="24" cy="24" r="3"></circle>
    </g>
</svg>