<?xml version="1.0" encoding="UTF-8"?>
<svg width="24px" height="24px" viewBox="0 0 24 24" version="1.1" xmlns="http://www.w3.org/2000/svg" xmlns:xlink="http://www.w3.org/1999/xlink">
    <title>ICN/01-White/Telegram</title>
    <g id="ICN/01-White/Telegram" stroke="none" stroke-width="1" fill="none" fill-rule="evenodd">
        <path d="M18.9197406,5.08599594 C19.5671331,4.80129018 20.1918423,5.23672251 19.9447787,6.19643154 L19.9447787,6.19643154 L17.5311573,17.2144375 C17.3625655,17.9972893 16.8743237,18.1845988 16.1976269,17.8229263 L16.1976269,17.8229263 L12.521,15.191 L10.7536446,16.8562095 C10.5739411,17.0254057 10.4270938,17.1713219 10.1467681,17.2051572 L10.0179713,17.2125371 L10.2683455,13.5788269 L10.269,13.578 L17.0908568,7.61485297 C17.3703146,7.37451396 17.0710819,7.24923023 16.7067528,7.42344891 L16.6278731,7.46543293 L8.20772464,12.6113975 L4.57067859,11.5116517 C3.78534736,11.2787322 3.77958459,10.7558808 4.74699495,10.3799552 L4.74699495,10.3799552 Z" id="Combined-Shape" fill="#FFFFFF" fill-rule="nonzero"></path>
    </g>
</svg>