<?xml version="1.0" encoding="UTF-8"?>
<svg width="24px" height="24px" viewBox="0 0 24 24" version="1.1" xmlns="http://www.w3.org/2000/svg" xmlns:xlink="http://www.w3.org/1999/xlink">
    <title>ICN/01-White/Twitter-2</title>
    <g id="ICN/01-White/Twitter-2" stroke="none" stroke-width="1" fill="none" fill-rule="evenodd">
        <path d="M9.03168,18.8 C15.06944,18.8 18.37184,13.8750737 18.37184,9.60419982 C18.37184,9.46431579 18.37184,9.32506186 18.36224,9.18643804 C19.0046921,8.72892326 19.5592675,8.16243609 20,7.51350056 C19.4008826,7.7748706 18.7653307,7.94627698 18.11456,8.02199794 C18.7998362,7.61808723 19.312719,6.98280572 19.55776,6.23438076 C18.9133808,6.6108423 18.2084135,6.87615362 17.47328,7.01886557 C16.455733,5.95360091 14.8388604,5.69287364 13.5293115,6.38288464 C12.2197627,7.07289563 11.543216,8.54204252 11.87904,9.96651208 C9.23961327,9.8362369 6.7804645,8.60883244 5.1136,6.58976183 C4.24231856,8.06651177 4.68735225,9.9557117 6.12992,10.9041132 C5.60751437,10.8888693 5.0964988,10.750123 4.64,10.4995837 C4.64,10.512816 4.64,10.5266783 4.64,10.5405407 C4.64042761,12.0790087 5.74192095,13.4040899 7.2736,13.7087251 C6.79031654,13.8384897 6.28325158,13.8574586 5.79136,13.7641747 C6.22140667,15.0807373 7.45380772,15.9826497 8.85824,16.0086203 C7.69583042,16.908057 6.25987809,17.3963253 4.78144,17.3948585 C4.52025828,17.3943649 4.2593306,17.3787955 4,17.3482305 C5.50120701,18.2967177 7.24794458,18.7998216 9.03168,18.7974796" id="Path" fill="#FFFFFF" fill-rule="nonzero"></path>
    </g>
</svg>