<?xml version="1.0" encoding="UTF-8"?>
<svg width="1080px" height="700px" viewBox="0 0 1080 700" version="1.1" xmlns="http://www.w3.org/2000/svg" xmlns:xlink="http://www.w3.org/1999/xlink">
    <title>04</title>
    <g id="04" stroke="none" stroke-width="1" fill="none" fill-rule="evenodd">
        <path d="M729.865234,601.18457 C730.817708,601.18457 731.657389,600.968099 732.384277,600.535156 C733.111165,600.102214 733.668294,599.504069 734.055664,598.740723 C734.443034,597.977376 734.636719,597.105794 734.636719,596.125977 L734.636719,596.125977 L734.636719,595.230469 L729.557617,595.230469 L729.557617,596.577148 L733.242188,596.577148 C733.214844,597.124023 733.107747,597.611654 732.920898,598.040039 C732.734049,598.468424 732.487956,598.814779 732.182617,599.079102 C731.877279,599.343424 731.529785,599.542806 731.140137,599.677246 C730.750488,599.811686 730.330078,599.878906 729.878906,599.878906 C729.122396,599.878906 728.437663,599.700033 727.824707,599.342285 C727.211751,598.984538 726.733236,598.499186 726.38916,597.88623 C726.045085,597.273275 725.873047,596.597656 725.873047,595.859375 C725.873047,595.116536 726.047363,594.432943 726.395996,593.808594 C726.744629,593.184245 727.226562,592.688639 727.841797,592.321777 C728.457031,591.954915 729.136068,591.771484 729.878906,591.771484 C730.457682,591.771484 731.021647,591.886556 731.570801,592.116699 C732.119954,592.346842 732.583659,592.685221 732.961914,593.131836 L732.961914,593.131836 L733.857422,592.140625 C733.337891,591.607422 732.731771,591.193848 732.039062,590.899902 C731.346354,590.605957 730.617188,590.458984 729.851562,590.458984 C729.108724,590.458984 728.403483,590.599121 727.73584,590.879395 C727.068197,591.159668 726.495117,591.540202 726.016602,592.020996 C725.538086,592.50179 725.157552,593.07487 724.875,593.740234 C724.592448,594.405599 724.451172,595.107422 724.451172,595.845703 C724.451172,596.583984 724.590169,597.283529 724.868164,597.944336 C725.150716,598.600586 725.532389,599.16569 726.013184,599.639648 C726.493978,600.113607 727.069336,600.489583 727.739258,600.767578 C728.40918,601.045573 729.117839,601.18457 729.865234,601.18457 Z M738.136719,601 L738.136719,596.269531 L741.999023,596.269531 L741.999023,594.922852 L738.136719,594.922852 L738.136719,591.99707 L742.798828,591.99707 L742.798828,590.636719 L736.708008,590.636719 L736.708008,601 L738.136719,601 Z M745.861328,601 L745.861328,590.636719 L744.432617,590.636719 L744.432617,601 L745.861328,601 Z" id="GFI" fill="#FFFFFF" fill-rule="nonzero"></path>
        <path d="M335.118164,600 L335.782227,598.271484 L339.180664,598.271484 L339.839844,600 L340.958008,600 L338.047852,592.597656 L336.929688,592.597656 L334.019531,600 L335.118164,600 Z M338.80957,597.30957 L336.148438,597.30957 L337.491211,593.837891 L338.80957,597.30957 Z M345.28697,600 C345.856631,600 346.384789,599.914551 346.871443,599.743652 C347.358096,599.572754 347.778018,599.331055 348.131208,599.018555 C348.484398,598.706055 348.760277,598.317057 348.958845,597.851562 C349.157413,597.386068 349.256696,596.871745 349.256696,596.308594 C349.256696,595.742188 349.156599,595.225423 348.956403,594.758301 C348.756208,594.291178 348.480329,593.900553 348.128767,593.586426 C347.777204,593.272298 347.35891,593.028971 346.873884,592.856445 C346.388858,592.683919 345.863142,592.597656 345.296735,592.597656 L345.296735,592.597656 L343.25572,592.597656 L343.25572,600 L345.28697,600 Z M345.228376,599.038086 L344.276228,599.038086 L344.276228,593.569336 L345.106306,593.569336 C345.542504,593.569336 345.942894,593.619792 346.307478,593.720703 C346.672061,593.821615 347.001651,593.977865 347.296247,594.189453 C347.590844,594.401042 347.82115,594.6875 347.987165,595.048828 C348.153181,595.410156 348.236189,595.833333 348.236189,596.318359 C348.236189,596.783854 348.158877,597.193197 348.004255,597.546387 C347.849633,597.899577 347.634789,598.183594 347.359724,598.398438 C347.084659,598.613281 346.76809,598.7736 346.410017,598.879395 C346.051944,598.985189 345.658064,599.038086 345.228376,599.038086 L345.228376,599.038086 Z M353.893276,600 C354.462937,600 354.991095,599.914551 355.477748,599.743652 C355.964402,599.572754 356.384324,599.331055 356.737514,599.018555 C357.090704,598.706055 357.366583,598.317057 357.565151,597.851562 C357.763718,597.386068 357.863002,596.871745 357.863002,596.308594 C357.863002,595.742188 357.762905,595.225423 357.562709,594.758301 C357.362514,594.291178 357.086635,593.900553 356.735073,593.586426 C356.38351,593.272298 355.965216,593.028971 355.48019,592.856445 C354.995164,592.683919 354.469448,592.597656 353.903041,592.597656 L353.903041,592.597656 L351.862026,592.597656 L351.862026,600 L353.893276,600 Z M353.834682,599.038086 L352.882533,599.038086 L352.882533,593.569336 L353.712612,593.569336 C354.14881,593.569336 354.5492,593.619792 354.913783,593.720703 C355.278367,593.821615 355.607957,593.977865 355.902553,594.189453 C356.197149,594.401042 356.427455,594.6875 356.593471,595.048828 C356.759487,595.410156 356.842494,595.833333 356.842494,596.318359 C356.842494,596.783854 356.765183,597.193197 356.610561,597.546387 C356.455938,597.899577 356.241095,598.183594 355.96603,598.398438 C355.690964,598.613281 355.374395,598.7736 355.016323,598.879395 C354.65825,598.985189 354.264369,599.038086 353.834682,599.038086 L353.834682,599.038086 Z M367.165458,600 L367.165458,596.660156 L369.807059,592.597656 L368.64495,592.597656 L366.652762,595.65918 L364.694754,592.597656 L363.513114,592.597656 L366.14495,596.669922 L366.14495,600 L367.165458,600 Z M375.097935,600.131836 C375.625279,600.131836 376.127395,600.031738 376.604283,599.831543 C377.081171,599.631348 377.492141,599.361165 377.837193,599.020996 C378.182245,598.680827 378.455683,598.273112 378.657506,597.797852 C378.859328,597.322591 378.96024,596.822917 378.96024,596.298828 C378.96024,595.771484 378.859328,595.27181 378.657506,594.799805 C378.455683,594.327799 378.183059,593.921712 377.839634,593.581543 C377.49621,593.241374 377.08524,592.971191 376.606724,592.770996 C376.128209,592.570801 375.622024,592.470703 375.08817,592.470703 C374.547805,592.470703 374.037551,592.572428 373.557408,592.775879 C373.077265,592.979329 372.667922,593.252767 372.329381,593.596191 C371.990839,593.939616 371.723098,594.347331 371.526158,594.819336 C371.329218,595.291341 371.230748,595.78776 371.230748,596.308594 C371.230748,596.839193 371.333287,597.341309 371.538365,597.814941 C371.743443,598.288574 372.019322,598.694661 372.366002,599.033203 C372.712681,599.371745 373.123651,599.639486 373.598912,599.836426 C374.074172,600.033366 374.573847,600.131836 375.097935,600.131836 Z M375.097935,599.199219 C374.577102,599.199219 374.097773,599.071452 373.659947,598.815918 C373.222121,598.560384 372.877069,598.212077 372.624791,597.770996 C372.372512,597.329915 372.246373,596.845703 372.246373,596.318359 C372.246373,595.797526 372.368443,595.314941 372.612584,594.870605 C372.856724,594.42627 373.197707,594.071452 373.635533,593.806152 C374.073358,593.540853 374.557571,593.408203 375.08817,593.408203 C375.618769,593.408203 376.102981,593.538411 376.540806,593.798828 C376.978632,594.059245 377.321243,594.411621 377.568638,594.855957 C377.816034,595.300293 377.939732,595.784505 377.939732,596.308594 C377.939732,596.835938 377.81522,597.320964 377.566197,597.763672 C377.317174,598.20638 376.974563,598.556315 376.538365,598.813477 C376.102167,599.070638 375.622024,599.199219 375.097935,599.199219 Z M384.74428,600.131836 C385.20652,600.131836 385.628069,600.059408 386.008929,599.914551 C386.389788,599.769694 386.719378,599.557292 386.997698,599.277344 C387.276018,598.997396 387.491676,598.640951 387.644671,598.208008 C387.797666,597.775065 387.874163,597.281901 387.874163,596.728516 L387.874163,596.728516 L387.874163,592.597656 L386.853655,592.597656 L386.853655,596.37207 C386.853655,598.256836 386.15053,599.199219 384.74428,599.199219 C383.344541,599.199219 382.644671,598.256836 382.644671,596.37207 L382.644671,596.37207 L382.644671,592.597656 L381.614397,592.597656 L381.614397,596.728516 C381.614397,597.822266 381.900042,598.662923 382.471331,599.250488 C383.04262,599.838053 383.80027,600.131836 384.74428,600.131836 Z M391.978516,600 L391.978516,596.782227 L393.248047,596.782227 L395.12793,600 L396.299805,600 L394.366211,596.71875 C394.935872,596.630859 395.37207,596.416829 395.674805,596.07666 C395.977539,595.736491 396.128906,595.275065 396.128906,594.692383 C396.128906,593.982747 395.910807,593.456217 395.474609,593.112793 C395.038411,592.769368 394.439453,592.597656 393.677734,592.597656 L393.677734,592.597656 L390.958008,592.597656 L390.958008,600 L391.978516,600 Z M393.667969,595.810547 L391.978516,595.810547 L391.978516,593.569336 L393.667969,593.569336 C394.14974,593.569336 394.510254,593.660482 394.749512,593.842773 C394.98877,594.025065 395.108398,594.311523 395.108398,594.702148 C395.108398,594.916992 395.073405,595.09847 395.003418,595.246582 C394.933431,595.394694 394.831706,595.508626 394.698242,595.588379 C394.564779,595.668132 394.415039,595.725098 394.249023,595.759277 C394.083008,595.793457 393.889323,595.810547 393.667969,595.810547 L393.667969,595.810547 Z M403.014369,600 L403.678432,598.271484 L407.076869,598.271484 L407.736049,600 L408.854213,600 L405.944057,592.597656 L404.825893,592.597656 L401.915737,600 L403.014369,600 Z M406.705776,597.30957 L404.044643,597.30957 L405.387416,593.837891 L406.705776,597.30957 Z M412.172433,600 L412.172433,593.901367 L414.340402,597.128906 L415.243722,597.128906 L417.440988,593.901367 L417.440988,600 L418.471261,600 L418.471261,592.597656 L417.084542,592.597656 L414.794503,596.030273 L412.543527,592.597656 L411.151925,592.597656 L411.151925,600 L412.172433,600 Z M424.938895,600.131836 C425.466239,600.131836 425.968355,600.031738 426.445243,599.831543 C426.922131,599.631348 427.333101,599.361165 427.678153,599.020996 C428.023205,598.680827 428.296642,598.273112 428.498465,597.797852 C428.700288,597.322591 428.8012,596.822917 428.8012,596.298828 C428.8012,595.771484 428.700288,595.27181 428.498465,594.799805 C428.296642,594.327799 428.024019,593.921712 427.680594,593.581543 C427.33717,593.241374 426.9262,592.971191 426.447684,592.770996 C425.969169,592.570801 425.462984,592.470703 424.929129,592.470703 C424.388765,592.470703 423.878511,592.572428 423.398368,592.775879 C422.918225,592.979329 422.508882,593.252767 422.17034,593.596191 C421.831799,593.939616 421.564058,594.347331 421.367118,594.819336 C421.170178,595.291341 421.071708,595.78776 421.071708,596.308594 C421.071708,596.839193 421.174247,597.341309 421.379325,597.814941 C421.584403,598.288574 421.860282,598.694661 422.206961,599.033203 C422.553641,599.371745 422.964611,599.639486 423.439872,599.836426 C423.915132,600.033366 424.414807,600.131836 424.938895,600.131836 Z M424.938895,599.199219 C424.418062,599.199219 423.938732,599.071452 423.500907,598.815918 C423.063081,598.560384 422.718029,598.212077 422.465751,597.770996 C422.213472,597.329915 422.087333,596.845703 422.087333,596.318359 C422.087333,595.797526 422.209403,595.314941 422.453544,594.870605 C422.697684,594.42627 423.038667,594.071452 423.476493,593.806152 C423.914318,593.540853 424.398531,593.408203 424.929129,593.408203 C425.459728,593.408203 425.943941,593.538411 426.381766,593.798828 C426.819592,594.059245 427.162202,594.411621 427.409598,594.855957 C427.656994,595.300293 427.780692,595.784505 427.780692,596.308594 C427.780692,596.835938 427.65618,597.320964 427.407157,597.763672 C427.158133,598.20638 426.815523,598.556315 426.379325,598.813477 C425.943127,599.070638 425.462984,599.199219 424.938895,599.199219 Z M434.58524,600.131836 C435.04748,600.131836 435.469029,600.059408 435.849888,599.914551 C436.230748,599.769694 436.560338,599.557292 436.838658,599.277344 C437.116978,598.997396 437.332636,598.640951 437.485631,598.208008 C437.638625,597.775065 437.715123,597.281901 437.715123,596.728516 L437.715123,596.728516 L437.715123,592.597656 L436.694615,592.597656 L436.694615,596.37207 C436.694615,598.256836 435.99149,599.199219 434.58524,599.199219 C433.1855,599.199219 432.485631,598.256836 432.485631,596.37207 L432.485631,596.37207 L432.485631,592.597656 L431.455357,592.597656 L431.455357,596.728516 C431.455357,597.822266 431.741002,598.662923 432.312291,599.250488 C432.88358,599.838053 433.64123,600.131836 434.58524,600.131836 Z M441.819475,600 L441.819475,593.94043 L446.287249,600 L447.351702,600 L447.351702,592.597656 L446.331194,592.597656 L446.331194,598.291016 L442.117327,592.597656 L440.798968,592.597656 L440.798968,600 L441.819475,600 Z M453.213867,600 L453.213867,593.569336 L455.567383,593.569336 L455.567383,592.597656 L449.825195,592.597656 L449.825195,593.569336 L452.183594,593.569336 L452.183594,600 L453.213867,600 Z" id="ADDYOURAMOUNT" fill="#FFFFFF" fill-rule="nonzero"></path>
        <path d="M833.586077,600 L834.25014,598.271484 L837.648577,598.271484 L838.307757,600 L839.425921,600 L836.515765,592.597656 L835.3976,592.597656 L832.487444,600 L833.586077,600 Z M837.277483,597.30957 L834.61635,597.30957 L835.959124,593.837891 L837.277483,597.30957 Z M844.892578,600.131836 C845.914714,600.131836 846.805013,599.763997 847.563477,599.02832 L847.563477,599.02832 L846.894531,598.359375 C846.630859,598.616536 846.325684,598.820801 845.979004,598.972168 C845.632324,599.123535 845.270182,599.199219 844.892578,599.199219 C844.518229,599.199219 844.156901,599.121908 843.808594,598.967285 C843.460286,598.812663 843.158366,598.605957 842.902832,598.347168 C842.647298,598.088379 842.443034,597.779948 842.290039,597.421875 C842.137044,597.063802 842.060547,596.692708 842.060547,596.308594 C842.060547,595.93099 842.135417,595.564779 842.285156,595.209961 C842.434896,594.855143 842.635905,594.545898 842.888184,594.282227 C843.140462,594.018555 843.444824,593.806966 843.80127,593.647461 C844.157715,593.487956 844.53125,593.408203 844.921875,593.408203 C845.30599,593.408203 845.672201,593.483887 846.020508,593.635254 C846.368815,593.786621 846.676432,594.002279 846.943359,594.282227 L846.943359,594.282227 L847.670898,593.637695 C847.312826,593.266602 846.896973,592.980957 846.42334,592.780762 C845.949707,592.580566 845.442708,592.480469 844.902344,592.480469 C844.36849,592.480469 843.863118,592.580566 843.38623,592.780762 C842.909342,592.980957 842.5,593.251139 842.158203,593.591309 C841.816406,593.931478 841.54541,594.337565 841.345215,594.80957 C841.14502,595.281576 841.044922,595.777995 841.044922,596.298828 C841.044922,597.005208 841.219076,597.652995 841.567383,598.242188 C841.91569,598.83138 842.38444,599.29362 842.973633,599.628906 C843.562826,599.964193 844.202474,600.131836 844.892578,600.131836 Z M853.371931,600.131836 C854.394066,600.131836 855.284366,599.763997 856.042829,599.02832 L856.042829,599.02832 L855.373884,598.359375 C855.110212,598.616536 854.805036,598.820801 854.458357,598.972168 C854.111677,599.123535 853.749535,599.199219 853.371931,599.199219 C852.997582,599.199219 852.636254,599.121908 852.287946,598.967285 C851.939639,598.812663 851.637719,598.605957 851.382185,598.347168 C851.126651,598.088379 850.922387,597.779948 850.769392,597.421875 C850.616397,597.063802 850.5399,596.692708 850.5399,596.308594 C850.5399,595.93099 850.614769,595.564779 850.764509,595.209961 C850.914249,594.855143 851.115258,594.545898 851.367536,594.282227 C851.619815,594.018555 851.924177,593.806966 852.280622,593.647461 C852.637068,593.487956 853.010603,593.408203 853.401228,593.408203 C853.785342,593.408203 854.151553,593.483887 854.49986,593.635254 C854.848168,593.786621 855.155785,594.002279 855.422712,594.282227 L855.422712,594.282227 L856.150251,593.637695 C855.792178,593.266602 855.376325,592.980957 854.902693,592.780762 C854.42906,592.580566 853.922061,592.480469 853.381696,592.480469 C852.847842,592.480469 852.342471,592.580566 851.865583,592.780762 C851.388695,592.980957 850.979353,593.251139 850.637556,593.591309 C850.295759,593.931478 850.024763,594.337565 849.824568,594.80957 C849.624372,595.281576 849.524275,595.777995 849.524275,596.298828 C849.524275,597.005208 849.698428,597.652995 850.046735,598.242188 C850.395043,598.83138 850.863793,599.29362 851.452985,599.628906 C852.042178,599.964193 852.681827,600.131836 853.371931,600.131836 Z M862.949916,600 L862.949916,599.038086 L859.649135,599.038086 L859.649135,596.621094 L862.388393,596.621094 L862.388393,595.65918 L859.649135,595.65918 L859.649135,593.569336 L862.949916,593.569336 L862.949916,592.597656 L858.628627,592.597656 L858.628627,600 L862.949916,600 Z M866.775949,600 L866.775949,597.37793 L868.006417,597.37793 C868.843006,597.37793 869.49242,597.167969 869.95466,596.748047 C870.416899,596.328125 870.648019,595.742188 870.648019,594.990234 C870.648019,594.21875 870.411203,593.627116 869.93757,593.215332 C869.463937,592.803548 868.820219,592.597656 868.006417,592.597656 L868.006417,592.597656 L865.755441,592.597656 L865.755441,600 L866.775949,600 Z M867.986886,596.411133 L866.775949,596.411133 L866.775949,593.569336 L867.986886,593.569336 C868.523996,593.569336 868.93171,593.693034 869.210031,593.94043 C869.488351,594.187826 869.627511,594.541016 869.627511,595 C869.627511,595.478516 869.481027,595.833333 869.188058,596.064453 C868.895089,596.295573 868.494699,596.411133 867.986886,596.411133 L867.986886,596.411133 Z M875.98284,600 L875.98284,593.569336 L878.336356,593.569336 L878.336356,592.597656 L872.594169,592.597656 L872.594169,593.569336 L874.952567,593.569336 L874.952567,600 L875.98284,600 Z M887.956194,600.131836 C888.97833,600.131836 889.868629,599.763997 890.627093,599.02832 L890.627093,599.02832 L889.958147,598.359375 C889.694475,598.616536 889.3893,598.820801 889.04262,598.972168 C888.69594,599.123535 888.333798,599.199219 887.956194,599.199219 C887.581845,599.199219 887.220517,599.121908 886.87221,598.967285 C886.523903,598.812663 886.221982,598.605957 885.966448,598.347168 C885.710914,598.088379 885.50665,597.779948 885.353655,597.421875 C885.20066,597.063802 885.124163,596.692708 885.124163,596.308594 C885.124163,595.93099 885.199033,595.564779 885.348772,595.209961 C885.498512,594.855143 885.699521,594.545898 885.9518,594.282227 C886.204078,594.018555 886.50844,593.806966 886.864886,593.647461 C887.221331,593.487956 887.594866,593.408203 887.985491,593.408203 C888.369606,593.408203 888.735817,593.483887 889.084124,593.635254 C889.432431,593.786621 889.740048,594.002279 890.006975,594.282227 L890.006975,594.282227 L890.734515,593.637695 C890.376442,593.266602 889.960589,592.980957 889.486956,592.780762 C889.013323,592.580566 888.506324,592.480469 887.96596,592.480469 C887.432106,592.480469 886.926735,592.580566 886.449847,592.780762 C885.972959,592.980957 885.563616,593.251139 885.221819,593.591309 C884.880022,593.931478 884.609026,594.337565 884.408831,594.80957 C884.208636,595.281576 884.108538,595.777995 884.108538,596.298828 C884.108538,597.005208 884.282692,597.652995 884.630999,598.242188 C884.979306,598.83138 885.448056,599.29362 886.037249,599.628906 C886.626442,599.964193 887.26609,600.131836 887.956194,600.131836 Z M894.233398,600 L894.233398,596.582031 L898.232422,596.582031 L898.232422,600 L899.25293,600 L899.25293,592.597656 L898.232422,592.597656 L898.232422,595.620117 L894.233398,595.620117 L894.233398,592.597656 L893.212891,592.597656 L893.212891,600 L894.233398,600 Z M902.649275,600 L903.313337,598.271484 L906.711775,598.271484 L907.370954,600 L908.489118,600 L905.578962,592.597656 L904.460798,592.597656 L901.550642,600 L902.649275,600 Z M906.340681,597.30957 L903.679548,597.30957 L905.022321,593.837891 L906.340681,597.30957 Z M915.288783,600 L915.288783,599.038086 L911.807338,599.038086 L911.807338,592.597656 L910.78683,592.597656 L910.78683,600 L915.288783,600 Z M922.293527,600 L922.293527,599.038086 L918.812081,599.038086 L918.812081,592.597656 L917.791574,592.597656 L917.791574,600 L922.293527,600 Z M929.117606,600 L929.117606,599.038086 L925.816825,599.038086 L925.816825,596.621094 L928.556083,596.621094 L928.556083,595.65918 L925.816825,595.65918 L925.816825,593.569336 L929.117606,593.569336 L929.117606,592.597656 L924.796317,592.597656 L924.796317,600 L929.117606,600 Z M932.943638,600 L932.943638,593.94043 L937.411412,600 L938.475865,600 L938.475865,592.597656 L937.455357,592.597656 L937.455357,598.291016 L933.24149,592.597656 L931.923131,592.597656 L931.923131,600 L932.943638,600 Z M944.938616,600.131836 C945.618955,600.131836 946.218727,599.977214 946.737932,599.667969 C947.257138,599.358724 947.655087,598.931478 947.93178,598.38623 C948.208473,597.840983 948.346819,597.218424 948.346819,596.518555 L948.346819,596.518555 L948.346819,595.878906 L944.71889,595.878906 L944.71889,596.84082 L947.350725,596.84082 C947.331194,597.231445 947.254697,597.579753 947.121233,597.885742 C946.98777,598.191732 946.811988,598.439128 946.59389,598.62793 C946.375791,598.816732 946.127581,598.959147 945.849261,599.055176 C945.57094,599.151204 945.270647,599.199219 944.948382,599.199219 C944.408017,599.199219 943.918922,599.071452 943.481097,598.815918 C943.043271,598.560384 942.701474,598.213704 942.455706,597.775879 C942.209938,597.338053 942.087054,596.855469 942.087054,596.328125 C942.087054,595.797526 942.211565,595.309245 942.460589,594.863281 C942.709612,594.417318 943.05385,594.063314 943.493304,593.80127 C943.932757,593.539225 944.417783,593.408203 944.948382,593.408203 C945.361793,593.408203 945.764625,593.490397 946.156878,593.654785 C946.54913,593.819173 946.880348,594.060872 947.15053,594.379883 L947.15053,594.379883 L947.790179,593.671875 C947.419085,593.291016 946.986142,592.995605 946.49135,592.785645 C945.996559,592.575684 945.475725,592.470703 944.92885,592.470703 C944.398251,592.470703 943.894508,592.570801 943.41762,592.770996 C942.940732,592.971191 942.53139,593.243001 942.189593,593.586426 C941.847796,593.92985 941.575986,594.339193 941.374163,594.814453 C941.17234,595.289714 941.071429,595.791016 941.071429,596.318359 C941.071429,596.845703 941.170712,597.345378 941.36928,597.817383 C941.571103,598.286133 941.843727,598.689779 942.187151,599.02832 C942.530576,599.366862 942.941546,599.635417 943.420061,599.833984 C943.898577,600.032552 944.404762,600.131836 944.938616,600.131836 Z M955.576172,600 L955.576172,599.038086 L952.275391,599.038086 L952.275391,596.621094 L955.014648,596.621094 L955.014648,595.65918 L952.275391,595.65918 L952.275391,593.569336 L955.576172,593.569336 L955.576172,592.597656 L951.254883,592.597656 L951.254883,600 L955.576172,600 Z" id="ACCEPTCHALLENGE" fill="#FFFFFF" fill-rule="nonzero"></path>
        <path d="M142.868652,600.131836 C143.890788,600.131836 144.781087,599.763997 145.539551,599.02832 L145.539551,599.02832 L144.870605,598.359375 C144.606934,598.616536 144.301758,598.820801 143.955078,598.972168 C143.608398,599.123535 143.246257,599.199219 142.868652,599.199219 C142.494303,599.199219 142.132975,599.121908 141.784668,598.967285 C141.436361,598.812663 141.13444,598.605957 140.878906,598.347168 C140.623372,598.088379 140.419108,597.779948 140.266113,597.421875 C140.113118,597.063802 140.036621,596.692708 140.036621,596.308594 C140.036621,595.93099 140.111491,595.564779 140.26123,595.209961 C140.41097,594.855143 140.611979,594.545898 140.864258,594.282227 C141.116536,594.018555 141.420898,593.806966 141.777344,593.647461 C142.133789,593.487956 142.507324,593.408203 142.897949,593.408203 C143.282064,593.408203 143.648275,593.483887 143.996582,593.635254 C144.344889,593.786621 144.652507,594.002279 144.919434,594.282227 L144.919434,594.282227 L145.646973,593.637695 C145.2889,593.266602 144.873047,592.980957 144.399414,592.780762 C143.925781,592.580566 143.418783,592.480469 142.878418,592.480469 C142.344564,592.480469 141.839193,592.580566 141.362305,592.780762 C140.885417,592.980957 140.476074,593.251139 140.134277,593.591309 C139.79248,593.931478 139.521484,594.337565 139.321289,594.80957 C139.121094,595.281576 139.020996,595.777995 139.020996,596.298828 C139.020996,597.005208 139.19515,597.652995 139.543457,598.242188 C139.891764,598.83138 140.360514,599.29362 140.949707,599.628906 C141.5389,599.964193 142.178548,600.131836 142.868652,600.131836 Z M151.367536,600.131836 C151.89488,600.131836 152.396996,600.031738 152.873884,599.831543 C153.350772,599.631348 153.761742,599.361165 154.106794,599.020996 C154.451846,598.680827 154.725284,598.273112 154.927107,597.797852 C155.12893,597.322591 155.229841,596.822917 155.229841,596.298828 C155.229841,595.771484 155.12893,595.27181 154.927107,594.799805 C154.725284,594.327799 154.45266,593.921712 154.109235,593.581543 C153.765811,593.241374 153.354841,592.971191 152.876325,592.770996 C152.39781,592.570801 151.891625,592.470703 151.357771,592.470703 C150.817406,592.470703 150.307152,592.572428 149.827009,592.775879 C149.346866,592.979329 148.937523,593.252767 148.598982,593.596191 C148.26044,593.939616 147.992699,594.347331 147.795759,594.819336 C147.598819,595.291341 147.500349,595.78776 147.500349,596.308594 C147.500349,596.839193 147.602888,597.341309 147.807966,597.814941 C148.013044,598.288574 148.288923,598.694661 148.635603,599.033203 C148.982282,599.371745 149.393252,599.639486 149.868513,599.836426 C150.343773,600.033366 150.843448,600.131836 151.367536,600.131836 Z M151.367536,599.199219 C150.846703,599.199219 150.367374,599.071452 149.929548,598.815918 C149.491722,598.560384 149.14667,598.212077 148.894392,597.770996 C148.642113,597.329915 148.515974,596.845703 148.515974,596.318359 C148.515974,595.797526 148.638044,595.314941 148.882185,594.870605 C149.126325,594.42627 149.467308,594.071452 149.905134,593.806152 C150.342959,593.540853 150.827172,593.408203 151.357771,593.408203 C151.88837,593.408203 152.372582,593.538411 152.810407,593.798828 C153.248233,594.059245 153.590844,594.411621 153.838239,594.855957 C154.085635,595.300293 154.209333,595.784505 154.209333,596.308594 C154.209333,596.835938 154.084821,597.320964 153.835798,597.763672 C153.586775,598.20638 153.244164,598.556315 152.807966,598.813477 C152.371768,599.070638 151.891625,599.199219 151.367536,599.199219 Z M158.855678,600 L158.855678,593.94043 L163.323451,600 L164.387905,600 L164.387905,592.597656 L163.367397,592.597656 L163.367397,598.291016 L159.15353,592.597656 L157.83517,592.597656 L157.83517,600 L158.855678,600 Z M168.53132,600 L168.53132,593.94043 L172.999093,600 L174.063546,600 L174.063546,592.597656 L173.043039,592.597656 L173.043039,598.291016 L168.829171,592.597656 L167.510812,592.597656 L167.510812,600 L168.53132,600 Z M181.507743,600 L181.507743,599.038086 L178.206961,599.038086 L178.206961,596.621094 L180.946219,596.621094 L180.946219,595.65918 L178.206961,595.65918 L178.206961,593.569336 L181.507743,593.569336 L181.507743,592.597656 L177.186454,592.597656 L177.186454,600 L181.507743,600 Z M187.433384,600.131836 C188.45552,600.131836 189.345819,599.763997 190.104283,599.02832 L190.104283,599.02832 L189.435338,598.359375 C189.171666,598.616536 188.86649,598.820801 188.51981,598.972168 C188.173131,599.123535 187.810989,599.199219 187.433384,599.199219 C187.059036,599.199219 186.697707,599.121908 186.3494,598.967285 C186.001093,598.812663 185.699172,598.605957 185.443638,598.347168 C185.188105,598.088379 184.98384,597.779948 184.830845,597.421875 C184.677851,597.063802 184.601353,596.692708 184.601353,596.308594 C184.601353,595.93099 184.676223,595.564779 184.825963,595.209961 C184.975702,594.855143 185.176711,594.545898 185.42899,594.282227 C185.681269,594.018555 185.985631,593.806966 186.342076,593.647461 C186.698521,593.487956 187.072056,593.408203 187.462681,593.408203 C187.846796,593.408203 188.213007,593.483887 188.561314,593.635254 C188.909621,593.786621 189.217239,594.002279 189.484166,594.282227 L189.484166,594.282227 L190.211705,593.637695 C189.853632,593.266602 189.437779,592.980957 188.964146,592.780762 C188.490513,592.580566 187.983515,592.480469 187.44315,592.480469 C186.909296,592.480469 186.403925,592.580566 185.927037,592.780762 C185.450149,592.980957 185.040806,593.251139 184.699009,593.591309 C184.357213,593.931478 184.086217,594.337565 183.886021,594.80957 C183.685826,595.281576 183.585728,595.777995 183.585728,596.298828 C183.585728,597.005208 183.759882,597.652995 184.108189,598.242188 C184.456496,598.83138 184.925246,599.29362 185.514439,599.628906 C186.103632,599.964193 186.74328,600.131836 187.433384,600.131836 Z M195.429339,600 L195.429339,593.569336 L197.782854,593.569336 L197.782854,592.597656 L192.040667,592.597656 L192.040667,593.569336 L194.399065,593.569336 L194.399065,600 L195.429339,600 Z M206.352888,600 L208.047224,594.399414 L209.726911,600 L210.757185,600 L213.066755,592.597656 L211.943708,592.597656 L210.234724,598.540039 L208.515974,592.597656 L207.573591,592.597656 L205.845075,598.540039 L204.155622,592.597656 L203.032575,592.597656 L205.337263,600 L206.352888,600 Z M215.310756,600 L215.974819,598.271484 L219.373256,598.271484 L220.032436,600 L221.1506,600 L218.240444,592.597656 L217.12228,592.597656 L214.212123,600 L215.310756,600 Z M219.002162,597.30957 L216.34103,597.30957 L217.683803,593.837891 L219.002162,597.30957 Z M227.950265,600 L227.950265,599.038086 L224.46882,599.038086 L224.46882,592.597656 L223.448312,592.597656 L223.448312,600 L227.950265,600 Z M234.955008,600 L234.955008,599.038086 L231.473563,599.038086 L231.473563,592.597656 L230.453055,592.597656 L230.453055,600 L234.955008,600 Z M241.779088,600 L241.779088,599.038086 L238.478306,599.038086 L238.478306,596.621094 L241.217564,596.621094 L241.217564,595.65918 L238.478306,595.65918 L238.478306,593.569336 L241.779088,593.569336 L241.779088,592.597656 L237.457799,592.597656 L237.457799,600 L241.779088,600 Z M247.32387,600 L247.32387,593.569336 L249.677386,593.569336 L249.677386,592.597656 L243.935198,592.597656 L243.935198,593.569336 L246.293597,593.569336 L246.293597,600 L247.32387,600 Z" id="CONNECTWALLET" fill="#FFFFFF" fill-rule="nonzero"></path>
    </g>
</svg>