<?xml version="1.0" encoding="UTF-8"?>
<svg width="17px" height="17px" viewBox="0 0 17 17" version="1.1" xmlns="http://www.w3.org/2000/svg" xmlns:xlink="http://www.w3.org/1999/xlink">
    <title>Combined Shape</title>
    <g id="02_Gauntlet" stroke="none" stroke-width="1" fill="none" fill-rule="evenodd">
        <g id="01-copy" transform="translate(-1035.000000, -18.000000)" fill="#FFFFFF" fill-rule="nonzero">
            <path d="M1049.7892,18.4587625 C1050.14855,18.1793504 1050.66815,18.2047515 1050.99837,18.5349658 C1051.3561,18.892698 1051.3561,19.4726964 1050.99837,19.8304286 L1050.99837,19.8304286 L1044.56167,26.2666667 L1050.99837,32.7029047 C1051.3561,33.0606369 1051.3561,33.6406354 1050.99837,33.9983675 C1050.66815,34.3285819 1050.14855,34.353983 1049.7892,34.0745708 L1049.7029,33.9983675 L1043.26667,27.5616667 L1036.83043,33.9983675 L1036.74413,34.0745708 C1036.38478,34.353983 1035.86518,34.3285819 1035.53497,33.9983675 C1035.17723,33.6406354 1035.17723,33.0606369 1035.53497,32.7029047 L1035.53497,32.7029047 L1041.97167,26.2666667 L1035.53497,19.8304286 C1035.17723,19.4726964 1035.17723,18.892698 1035.53497,18.5349658 C1035.86518,18.2047515 1036.38478,18.1793504 1036.74413,18.4587625 L1036.83043,18.5349658 L1043.26667,24.9716667 L1049.7029,18.5349658 Z" id="Combined-Shape"></path>
        </g>
    </g>
</svg>