<?xml version="1.0" encoding="UTF-8"?>
<svg width="24px" height="24px" viewBox="0 0 24 24" version="1.1" xmlns="http://www.w3.org/2000/svg" xmlns:xlink="http://www.w3.org/1999/xlink">
    <title>ICN/01-White/Discord</title>
    <g id="ICN/01-White/Discord" stroke="none" stroke-width="1" fill="none" fill-rule="evenodd">
        <path d="M9.82191785,6 L9.95890414,6.15725012 C7.4931507,6.83819577 6.35616439,7.87270934 6.35616439,7.87270934 L6.36356433,7.86888214 L6.53395841,7.78391644 C6.67259143,7.7163256 6.88792031,7.61437856 7.16438357,7.49295119 C8.630137,6.87748109 9.79452054,6.70724468 10.2739726,6.66795936 C10.3561644,6.65486425 10.4246575,6.64176914 10.5068493,6.64176914 C11.3424658,6.53700827 12.2876712,6.51081805 13.2739727,6.61557892 C14.5753425,6.75962512 15.9726027,7.12628815 17.3972603,7.87270934 C17.3972603,7.87270934 16.3150685,6.8905762 13.9863014,6.20963056 L14.1780822,6 L14.2326028,6.00031733 C14.5543836,6.00669918 16.2520549,6.10225067 18.0273973,7.37509522 C18.0273973,7.37509522 20,10.7929185 20,15.0095435 C20,15.0095435 18.8356165,16.9083342 15.8082192,17 C15.8082192,17 15.5037741,16.6523783 15.1739587,16.2620257 L14.9932206,16.0467009 C14.9632374,16.010718 14.9334638,15.9748401 14.9041096,15.9392962 C16.6986301,15.4547772 17.3835617,14.3809783 17.3835617,14.3809783 C16.8219179,14.7345462 16.2876713,14.9833533 15.8082192,15.1535897 C15.1232877,15.428587 14.4657535,15.6119185 13.8219178,15.7166794 C12.5068494,15.9523913 11.3013699,15.8869157 10.2739726,15.7035842 C9.49315074,15.559538 8.82191783,15.3500163 8.26027399,15.1404945 C7.9452055,15.0226386 7.60273974,14.8785924 7.26027398,14.6952609 L7.13698631,14.6297854 L7.13698631,14.6297854 C7.10958905,14.6166902 7.09589042,14.6035951 7.0821918,14.5905 C6.83561645,14.4595489 6.69863015,14.3678831 6.69863015,14.3678831 L6.71257453,14.3887838 C6.81573441,14.5386652 7.50114156,15.4569597 9.09589043,15.913106 L9.00657975,16.0208925 L9.00657975,16.0208925 L8.82442391,16.238928 C8.49098408,16.6362099 8.17808221,17 8.17808221,17 C5.15068493,16.9083342 4,15.0095435 4,15.0095435 C4,10.7929185 5.97260275,7.37509522 5.97260275,7.37509522 C7.74794522,6.10225067 9.44561648,6.00669918 9.7673973,6.00031733 L9.82191785,6 L9.82191785,6 Z M9.43835621,10.8845843 C8.65753426,10.8845843 8.04109591,11.5393397 8.04109591,12.3381414 C8.04109591,13.136943 8.67123289,13.7916984 9.43835621,13.7916984 C10.2191781,13.7916984 10.8356165,13.136943 10.8356165,12.3381414 C10.8493151,11.5393397 10.2191781,10.8845843 9.43835621,10.8845843 Z M14.4383562,10.8845843 C13.6575343,10.8845843 13.041096,11.5393397 13.041096,12.3381414 C13.041096,13.136943 13.6712329,13.7916984 14.4383562,13.7916984 C15.2191781,13.7916984 15.8356164,13.136943 15.8356164,12.3381414 C15.8356164,11.5393397 15.2191781,10.8845843 14.4383562,10.8845843 Z" id="Combined-Shape" fill="#FFFFFF" fill-rule="nonzero"></path>
    </g>
</svg>